<svg xmlns="http://www.w3.org/2000/svg" version="1.0" width="400.000000pt" height="400.000000pt" viewBox="0 0 400.000000 400.000000" preserveAspectRatio="xMidYMid meet">
    <metadata>
        Created by potrace 1.16, written by Peter Selinger 2001-2019
    </metadata>
    <g transform="translate(0.000000,400.000000) scale(0.100000,-0.100000)" fill="#000000" stroke="none">
        <path d="M1855 3959 c-454 -29 -887 -221 -1224 -544 -288 -276 -479 -622 -567 -1030 -27 -124 -29 -142 -29 -385 0 -241 2 -262 28 -385 65 -304 189 -574 375 -820 61 -81 210 -233 302 -309 314 -261 707 -418 1111 -445 512 -34 990 118 1389 443 397 323 657 808 709 1325 46 443 -72 910 -323 1281 -92 136 -143 198 -251 304 -235 233 -519 400 -834 492 -128 37 -255 62 -356 69 -181 11 -212 12 -330 4z m394 -115 c625 -92 1136 -462 1416 -1026 280 -564 247 -1253 -85 -1793 -249 -406 -654 -706 -1112 -825 -237 -61 -510 -77 -741 -44 -545 79 -1027 394 -1321 863 -95 150 -195 401 -234 582 -47 217 -54 510 -18 714 134 753 701 1345 1441 1504 55 12 129 25 165 30 113 15 375 12 489 -5z"/>
        <path d="M1884 2556 c-98 -103 -181 -356 -143 -440 14 -29 59 -51 87 -41 95 29 229 347 198 469 -6 26 -51 56 -82 56 -10 0 -37 -20 -60 -44z m100 -22 c46 -45 -18 -194 -84 -194 -14 0 -31 5 -38 12 -28 28 -5 128 40 175 25 27 60 30 82 7z"/>
        <path d="M2300 2424 c-73 -62 -164 -329 -146 -427 15 -82 85 -102 143 -41 69 74 135 252 137 371 1 63 -2 74 -23 97 -32 34 -71 33 -111 0z m78 -30 c38 -26 23 -133 -25 -186 -22 -24 -69 -23 -83 1 -29 56 7 173 60 194 23 8 24 8 48 -9z"/>
    </g>
</svg>